<?xml version="1.0" standalone="no"?>
<!DOCTYPE svg PUBLIC "-//W3C//DTD SVG 20010904//EN"
 "http://www.w3.org/TR/2001/REC-SVG-20010904/DTD/svg10.dtd">
<svg version="1.0" xmlns="http://www.w3.org/2000/svg"
 width="1024.000000pt" height="1024.000000pt" viewBox="0 0 1024.000000 1024.000000"
 preserveAspectRatio="xMidYMid meet">
<metadata>
Created by potrace 1.11, written by Peter Selinger 2001-2013
</metadata>
<g transform="translate(0.000000,1024.000000) scale(0.100000,-0.100000)"
fill="#000000" stroke="none">
<path d="M4898 9315 c-1 -1 -66 -6 -143 -10 -77 -3 -153 -8 -170 -10 -16 -2
-61 -6 -100 -10 -84 -8 -135 -13 -195 -21 -25 -3 -62 -7 -84 -9 -21 -3 -46 -7
-55 -9 -9 -3 -36 -8 -61 -11 -25 -3 -90 -14 -145 -25 -55 -10 -111 -21 -125
-24 -21 -4 -60 -13 -175 -40 -466 -113 -932 -318 -1270 -560 -211 -151 -492
-423 -594 -574 -13 -20 -27 -39 -31 -42 -11 -8 -84 -120 -142 -215 -87 -145
-186 -358 -245 -530 -52 -152 -122 -427 -137 -540 -2 -16 -7 -41 -10 -55 -3
-14 -8 -45 -11 -70 -4 -41 -9 -79 -20 -165 -20 -155 -27 -704 -12 -885 33
-370 85 -632 189 -945 68 -203 190 -456 306 -635 142 -219 324 -425 524 -592
60 -50 108 -91 108 -92 0 -2 7 -47 15 -102 39 -260 40 -646 1 -831 -3 -15 -8
-44 -11 -63 -14 -90 -66 -270 -112 -385 -67 -167 -181 -362 -285 -487 l-40
-48 44 -1 c172 -5 382 3 418 15 8 3 31 7 50 10 56 8 218 52 300 81 102 37 352
159 405 198 5 4 48 32 95 63 212 141 369 283 783 713 l129 133 56 -7 c31 -4
63 -8 72 -10 8 -1 40 -6 70 -9 30 -4 69 -8 85 -10 17 -3 66 -8 110 -11 44 -4
94 -9 110 -11 280 -31 1036 -24 1360 11 28 3 73 8 100 11 53 5 296 40 330 47
11 3 40 8 65 12 84 14 95 16 130 25 19 5 49 12 67 15 46 8 143 33 273 70 172
50 266 82 455 158 75 30 331 161 405 206 45 28 83 51 85 51 5 0 138 92 145
100 3 3 30 24 61 46 269 201 524 497 701 814 154 276 284 645 342 970 3 19 8
46 11 60 3 14 8 48 11 75 3 28 7 52 9 55 2 3 6 41 10 85 4 44 9 83 11 86 10
17 19 271 19 524 -1 306 -6 410 -31 595 -3 19 -7 53 -10 75 -2 22 -9 67 -15
100 -6 33 -12 74 -15 90 -12 68 -58 257 -89 360 -127 426 -353 829 -624 1118
-119 127 -260 252 -386 344 -84 61 -240 163 -250 163 -4 0 -19 9 -35 20 -30
22 -211 113 -305 155 -118 53 -305 121 -480 175 -60 18 -271 72 -300 77 -16 2
-37 6 -45 9 -25 9 -300 58 -390 69 -30 4 -62 9 -70 10 -8 1 -44 6 -80 9 -36 4
-78 9 -95 11 -16 2 -75 6 -129 10 -55 4 -109 9 -120 12 -23 5 -812 13 -818 8z
m-1011 -3202 c88 -41 172 -137 191 -220 14 -65 4 -169 -22 -224 -118 -251
-464 -261 -597 -17 -32 59 -34 69 -34 153 0 78 4 98 28 147 34 70 107 138 179
166 68 26 192 24 255 -5z m1465 -2 c65 -28 129 -89 164 -158 24 -48 29 -72 31
-140 2 -76 0 -87 -33 -152 -76 -153 -234 -223 -392 -173 -315 100 -317 529 -2
639 50 18 175 9 232 -16z m1468 -3 c170 -78 241 -275 160 -444 -60 -124 -174
-193 -312 -189 -242 7 -395 270 -282 485 28 55 47 77 97 115 92 69 229 83 337
33z"/>
</g>
</svg>
