<svg xmlns="http://www.w3.org/2000/svg" viewBox="0 0 630 628"><g fill="none" fill-rule="evenodd"><path fill="currentColor" d="M318.3 538c-29.4 0-59-1.8-87.5-6.3-18.5 12-76.8 104.5-175 95 7.7-10.2 50.2-55.6 33.6-150.4C35.4 435.3 0 369.7 0 269 0 55 160.6 0 318.3 0 476 0 630 54.8 630 269c0 214.3-154 269-311.7 269zm-115-236c14.6 0 26.4-12 26.4-26.4 0-14.5-11.8-26.2-26.3-26.2s-26.2 11.7-26.2 26.2S189 302 203.4 302zm115 0c14.5 0 26.2-12 26.2-26.4 0-14.5-11.7-26.2-26.2-26.2S292 261 292 275.6s11.8 26.3 26.3 26.3zm114.8 0c14.6 0 26.4-12 26.4-26.4 0-14.5-11.8-26.2-26.3-26.2-14.4 0-26 11.7-26 26.2s11.6 26.3 26 26.3z"/></g></svg>
